<svg xmlns="http://www.w3.org/2000/svg" xmlns:xlink="http://www.w3.org/1999/xlink" version="1.1" id="Layer_1" x="0px" y="0px" style="enable-background:new 0 0 1000 1000;" xml:space="preserve" viewBox="380.79 390.7 238.42 218.7">
<style type="text/css">
	.st0{fill:#E14549;}
	.st1{fill:#dbdbdb;}
	.st2{fill:#4D4D4F;}
	.st3{fill-rule:evenodd;clip-rule:evenodd;fill:#dbdbdb;}
	.st4{fill-rule:evenodd;clip-rule:evenodd;fill:#E14549;}
	.st5{fill-rule:evenodd;clip-rule:evenodd;fill:#4D4D4F;}
	.st6{fill-rule:evenodd;clip-rule:evenodd;fill:#FFFFFF;}
</style>
<g>
	<g>
		<path class="st3" d="M607,513.9c-6.4,13.6-14.6,26.2-24.4,37.5c-9.7,11.9-21.4,22-34.5,29.9c-14.5,9-31,14.5-48,16.1    c-17-1.6-33.5-7.1-48-16.1c-13.2-7.9-24.8-18-34.5-29.9c-9.8-11.3-18.1-24-24.5-37.5c-1.5-4.1-1.5-8.6,0-12.7    c3-7.4,8.2-13.8,14.8-18.4c1.8-1.5,4-2.3,6.3-2.4c5.2,0.8,8.1,8.1,10.1,12c-1.3,1.4-2.9,2.5-4.3,4c-8.9,9.6-7.5,21.7-2.1,33.3    c8.9,16.1,20.8,30.3,35.1,41.9c-9-21.4-5.6-48.7,16.5-61.2c-2,26.6,59.1,31.1,61.2,0c22,12.7,25.4,39.8,16.4,61.2    c14.3-11.6,26.2-25.8,35.1-41.9c5.5-11.7,6.8-23.8-2-33.3c-1.5-1.5-3-2.6-4.4-4c2-4,5-11.2,10.2-12c2.3,0.1,4.6,0.9,6.3,2.4    c6.6,4.5,11.8,10.9,14.8,18.4C608.6,505.3,608.6,509.8,607,513.9 M425.1,417c5.1-3,12.7,2,16.2,5.8c5.2,5.2,6.2,13.4,2.3,19.6    c-4.1,6-9.3,11.1-15.2,15.3c-1.2-3.3-2.5-6.3-3.7-9c-1.5-3.4-2.6-7-3.4-10.6C420.2,432.5,419.4,420.5,425.1,417 M454.6,451.4    c6.2-3.9,14-3.9,20.2,0c4.4,4.6,5.7,11.4,3.2,17.3c-0.5,1.7-1.4,3.3-2.5,4.8c0.6-8.2-5.7-15.4-13.9-16c-0.6,0-1.1,0-1.7,0    c-3.8,0.2-7.4,2-9.7,5.1c-4.1,4.8-4.4,11.8-0.6,16.9c-1.6-0.1-3.2-0.8-4.3-2c-1.8-2.2-2.6-5.1-2.2-7.9c0.6-7.6,4.9-14.5,11.5-18.4     M471.9,426.8c0.7-1.4,2.8-2.1,4.1-2.6c7.7-2.1,15.7-3.2,23.7-3.3h0.9c8,0.1,15.9,1.2,23.6,3.3c1.4,0.5,3.5,1.2,4.1,2.6    c0.3,0.6,0.3,1.4,0,2c-2.3,2.6-4.8,5-7.6,7c-8.3,5.5-14.3,13.9-16.8,23.5c-1.5,5.6-1.3,11.6,0.6,17.1c3,9,9.5,14.4,12.7,22.6    c1.8,3.8,1.9,8.2,0.4,12.2c-2.8,5.9-11.3,6.9-17.1,7h-1.3c-5.9,0-14.3-1.1-17.2-7c-1.5-4-1.3-8.3,0.4-12.2    c3.2-8.2,9.7-13.6,12.7-22.6c1.9-5.5,2.1-11.5,0.6-17.1c-2.6-9.6-8.6-18-16.9-23.5c-2.7-2-5.1-4.3-7.3-6.8c-0.3-0.6-0.3-1.4,0-2     M545.4,451.4c6.6,3.9,10.9,10.8,11.5,18.4c0.3,2.8-0.5,5.7-2.3,7.9c-1.1,1.2-2.7,1.9-4.3,2c3.8-5.1,3.6-12.1-0.6-16.9    c-2.3-3.1-5.9-5-9.8-5.1c-8.3-0.3-15.2,6.1-15.6,14.3c0,0.5,0,1.1,0,1.6c-1.1-1.4-1.9-3-2.5-4.8c-2.4-5.9-1.1-12.7,3.2-17.3    c6.2-3.9,14-3.9,20.2,0 M558.8,422.8c3.3-3.7,11-8.8,16.1-5.8c5.1,3,5,15.5,3.9,21.1c-0.8,3.7-1.9,7.2-3.4,10.6    c-1.2,2.7-2.4,5.7-3.6,9c-6-4.2-11.1-9.4-15.3-15.3C552.5,436.1,553.5,428,558.8,422.8 M616.9,496c-4.7-10.2-12.5-18.7-22.2-24.2    c-3.3-2-6.1-4.5-8.4-7.5c-0.9-1.6-1.4-3.5-1.5-5.3c0.1-2.3,0.5-4.6,1.3-6.8c3.2-8.8,4.9-18.1,4.9-27.5c0-13.2-5.3-34-21.9-34    c-2.3,0-4.6,0.4-6.7,1.1c-3.7,1.4-7,3.7-9.6,6.7c-3.2,3.7-12.7,18.2-16.3,19.6c-0.7,0.3-1.4,0.3-2.1,0c-22.2-7.7-46.4-7.7-68.6,0    c-0.7,0.3-1.5,0.3-2.2,0c-3.4-1.4-12.7-15.9-16.3-19.6c-2.6-2.9-6-5-9.6-6.3c-2.2-0.8-4.5-1.2-6.8-1.1c-16.6,0-21.9,20.9-21.9,34    c0.1,9.4,1.8,18.7,5,27.5c0.8,2.2,1.2,4.5,1.2,6.8c0,1.9-0.4,3.7-1.4,5.3c-2.3,3-5.2,5.6-8.4,7.5c-9.8,5.5-17.6,14-22.3,24.2    c-1.6,4-2.4,8.3-2.3,12.7c0.4,7.3,2.6,14.4,6.3,20.7c9.4,17.2,21.8,32.7,36.5,45.6c22.1,19,49.8,32.6,73.7,34h2.7h2.6    c24-1.4,51.7-15,73.7-34c14.7-13,27.1-28.4,36.6-45.6c3.7-6.3,5.9-13.4,6.3-20.7c0.1-4.3-0.7-8.7-2.3-12.7" fill="#000000"/>
		<path class="st3" d="M513.2,572.7c-0.4,0.8-1,1.5-1.6,2c-1.3,0.9-2.7,1.5-4.2,1.8c-1.6,0.6-3.3,0.9-5,1.1v-25.9    c5,3.2,10.9,4.6,16.7,3.9C517.6,561.5,515.7,567.2,513.2,572.7z M497.8,577.7c-1.7-0.2-3.4-0.6-5.1-1.1c-1.5-0.4-2.9-1-4.2-1.8    c-0.7-0.5-1.2-1.2-1.6-2c-2.4-5.5-4.4-11.2-5.9-17c5.9,0.7,11.8-0.7,16.8-3.9V577.7z M520.7,549.3c-2.5,0.8-5.1,1.2-7.7,1    c-4.1,0-7.8-2.2-9.8-5.8c0-0.7-1.1-0.8-3-0.8h-0.5c-2,0-2.7,0-3.1,0.8c-1.9,3.6-5.6,5.8-9.7,5.8c-2.6,0.2-5.2-0.2-7.7-1    c-6-2.7-12.5-4-19-3.7c9.2,20.8,23.5,36.3,39.7,36.2h0.5c16.2,0,30.6-15.4,39.7-36.2c-6.5-0.2-13,1.1-19,3.7H520.7z" fill="#000000"/>
	</g>
</g>
</svg>